<?xml version="1.0" standalone="no"?><!-- Generator: Gravit.io --><svg xmlns="http://www.w3.org/2000/svg" xmlns:xlink="http://www.w3.org/1999/xlink" style="isolation:isolate" viewBox="0 0 1366 768" width="1366" height="768"><defs><clipPath id="_clipPath_ixdhQ9lVEHp6KPduf3zaNYMPbmf0KLpZ"><rect width="1366" height="768"/></clipPath></defs><g clip-path="url(#_clipPath_ixdhQ9lVEHp6KPduf3zaNYMPbmf0KLpZ)"><rect width="1366" height="768" style="fill:rgb(50,50,50)"/><linearGradient id="_lgradient_0" x1="14.64466094067262%" y1="14.644660940672626%" x2="85.35533905932738%" y2="85.35533905932738%"><stop offset="0.43478260869565216%" stop-opacity="0.5" style="stop-color:rgb(255,0,255)"/><stop offset="100%" stop-opacity="0.5" style="stop-color:rgb(255,153,0)"/></linearGradient><path d=" M 313.256 301.273 C 333.338 308.521 345.857 324.075 366.321 330.373 C 489.87 368.397 427.945 106.13 535.787 104.419 C 643.629 102.707 762.558 505.938 551.193 501.551 C 487.418 500.228 457.675 429.519 395.421 421.098 C 333.319 412.697 284.155 477.586 224.243 457.045 C 164.331 436.504 140.329 338.546 196.855 296.138 C 232.333 269.521 274.156 287.162 313.256 301.273 Z " fill="url(#_lgradient_0)"/><linearGradient id="_lgradient_1" x1="13.51193136593905%" y1="13.511931365939045%" x2="86.2636300187857%" y2="86.26363001878573%"><stop offset="0%" stop-opacity="0.5" style="stop-color:rgb(26,109,255)"/><stop offset="100%" stop-opacity="0.5" style="stop-color:rgb(200,34,255)"/></linearGradient><path d=" M 611.105 337.221 C 657.437 346.029 670.881 403.796 717.236 412.539 C 766.877 421.901 742.912 376.591 850.754 374.88 C 958.596 373.168 997.1 538.159 902.108 583.717 C 837.797 614.56 804.08 525.106 746.336 503.263 C 640.291 463.15 387.587 615.635 429.657 455.333 C 450.833 374.643 528.555 321.526 611.105 337.221 Z " fill="url(#_lgradient_1)"/><linearGradient id="_lgradient_2" x1="13.51193136593905%" y1="13.511931365939045%" x2="86.2636300187857%" y2="86.26363001878573%"><stop offset="0%" stop-opacity="0.5" style="stop-color:rgb(26,109,255)"/><stop offset="100%" stop-opacity="0.5" style="stop-color:rgb(200,34,255)"/></linearGradient><path d=" M 754.895 80.454 C 805.039 71.181 842.54 111.249 861.025 155.772 C 882.191 206.753 883.898 333.297 825.078 297.85 C 792.012 277.923 822.265 226.439 794.266 201.99 C 762.725 174.448 707.313 227.983 683 190.008 C 651.719 141.149 704.303 89.809 754.895 80.454 Z " fill="url(#_lgradient_2)"/><linearGradient id="_lgradient_3" x1="13.51193136593905%" y1="13.511931365939045%" x2="86.2636300187857%" y2="86.26363001878573%"><stop offset="0%" stop-opacity="0.5" style="stop-color:rgb(26,109,255)"/><stop offset="100%" stop-opacity="0.5" style="stop-color:rgb(200,34,255)"/></linearGradient><path d=" M 260.19 349.203 C 310.335 339.93 347.836 379.999 366.321 424.521 C 387.487 475.503 370.121 529.449 330.373 566.599 C 252.156 639.706 16.7 523.805 102.707 477.586 C 130.179 462.823 161.193 474.37 188.296 458.757 C 229.681 434.916 209.599 358.559 260.19 349.203 Z " fill="url(#_lgradient_3)"/><linearGradient id="_lgradient_4" x1="13.51193136593905%" y1="13.511931365939045%" x2="86.2636300187857%" y2="86.26363001878573%"><stop offset="0%" stop-opacity="0.5" style="stop-color:rgb(26,109,255)"/><stop offset="100%" stop-opacity="0.5" style="stop-color:rgb(200,34,255)"/></linearGradient><path d=" M 1004.815 145.501 C 1053.714 111.634 1092.46 176.297 1110.945 220.82 C 1132.111 271.801 1127.95 337.517 1074.998 362.897 C 1025.255 386.739 956.674 368.56 944.902 311.544 C 937.965 277.946 968.238 256.463 979.138 225.955 C 989.123 198.006 978.579 163.672 1004.815 145.501 Z " fill="url(#_lgradient_4)"/><linearGradient id="_lgradient_5" x1="14.64466094067262%" y1="14.644660940672626%" x2="85.35533905932738%" y2="85.35533905932738%"><stop offset="0%" stop-opacity="0.5" style="stop-color:rgb(255,0,255)"/><stop offset="100%" stop-opacity="0.5" style="stop-color:rgb(255,153,0)"/></linearGradient><path d=" M 573.446 339.788 C 573.446 277.907 706.707 188.296 768.589 188.296 C 830.471 188.296 866.16 302.727 866.16 364.609 C 866.16 426.491 747.449 451.91 685.568 451.91 C 623.686 451.91 573.446 401.67 573.446 339.788 Z " fill="url(#_lgradient_5)"/><linearGradient id="_lgradient_6" x1="14.64466094067262%" y1="14.644660940672626%" x2="85.35533905932738%" y2="85.35533905932738%"><stop offset="0%" stop-opacity="0.5" style="stop-color:rgb(255,0,255)"/><stop offset="100%" stop-opacity="0.5" style="stop-color:rgb(255,153,0)"/></linearGradient><path d=" M 765.165 506.687 C 765.165 444.805 932.662 528.94 994.544 528.94 C 1056.425 528.94 1191.398 415.705 1191.398 477.586 C 1191.398 539.468 977.684 679.576 915.802 679.576 C 853.92 679.576 765.165 568.568 765.165 506.687 Z " fill="url(#_lgradient_6)"/><linearGradient id="_lgradient_7" x1="13.51193136593905%" y1="13.511931365939045%" x2="86.2636300187857%" y2="86.26363001878573%"><stop offset="0%" stop-opacity="0.5" style="stop-color:rgb(26,109,255)"/><stop offset="100%" stop-opacity="0.5" style="stop-color:rgb(200,34,255)"/></linearGradient><path d=" M 1039.05 399.701 C 1039.05 387.891 1048.638 378.303 1060.447 378.303 C 1072.257 378.303 1081.845 387.891 1081.845 399.701 C 1081.845 411.51 1072.257 421.098 1060.447 421.098 C 1048.638 421.098 1039.05 411.51 1039.05 399.701 Z " fill="url(#_lgradient_7)"/></g></svg>